{
	"asset":{
		"generator":"Khronos glTF Blender I/O v4.1.63",
		"version":"2.0"
	},
	"scene":0,
	"scenes":[
		{
			"name":"Scene",
			"nodes":[
				0,
				1,
				2,
				3,
				4,
				5
			]
		}
	],
	"nodes":[
		{
			"mesh":0,
			"name":"Cube.001",
			"rotation":[
				-0.03332087770104408,
				0.34765055775642395,
				-0.04743225499987602,
				0.9358306527137756
			]
		},
		{
			"mesh":1,
			"name":"Sphere",
			"rotation":[
				0.7071068286895752,
				0,
				0,
				0.7071068286895752
			],
			"scale":[
				0.8289194703102112,
				0.8289194703102112,
				0.8289194703102112
			],
			"translation":[
				1.0159553289413452,
				0.009095817804336548,
				-0.9843969345092773
			]
		},
		{
			"mesh":2,
			"name":"Sphere.001",
			"rotation":[
				0.7071068286895752,
				0,
				0,
				0.7071068286895752
			],
			"translation":[
				-1.0022891759872437,
				-0.008413612842559814,
				-1.2353497743606567
			]
		},
		{
			"mesh":3,
			"name":"Cube.004"
		},
		{
			"mesh":4,
			"name":"Cube.003"
		},
		{
			"mesh":5,
			"name":"Cube.005"
		}
	],
	"materials":[
		{
			"alphaMode":"BLEND",
			"doubleSided":true,
			"name":"Material",
			"pbrMetallicRoughness":{
				"baseColorFactor":[
					0.800000011920929,
					0.800000011920929,
					0.800000011920929,
					1
				],
				"metallicFactor":0,
				"roughnessFactor":0.5
			}
		}
	],
	"meshes":[
		{
			"name":"Cube.001",
			"primitives":[
				{
					"attributes":{
						"POSITION":0,
						"NORMAL":1,
						"TEXCOORD_0":2
					},
					"indices":3,
					"material":0
				}
			]
		},
		{
			"name":"Sphere.001",
			"primitives":[
				{
					"attributes":{
						"POSITION":4,
						"NORMAL":5,
						"TEXCOORD_0":6
					},
					"indices":7
				}
			]
		},
		{
			"name":"Sphere.002",
			"primitives":[
				{
					"attributes":{
						"POSITION":8,
						"NORMAL":9,
						"TEXCOORD_0":10
					},
					"indices":11
				}
			]
		},
		{
			"name":"Cube.004",
			"primitives":[
				{
					"attributes":{
						"POSITION":12,
						"NORMAL":13,
						"TEXCOORD_0":14
					},
					"indices":15
				}
			]
		},
		{
			"name":"Cube.003",
			"primitives":[
				{
					"attributes":{
						"POSITION":16,
						"NORMAL":17,
						"TEXCOORD_0":18
					},
					"indices":19,
					"material":0
				}
			]
		},
		{
			"name":"Cube.005",
			"primitives":[
				{
					"attributes":{
						"POSITION":20,
						"NORMAL":21,
						"TEXCOORD_0":22
					},
					"indices":23
				}
			]
		}
	],
	"accessors":[
		{
			"bufferView":0,
			"componentType":5126,
			"count":163484,
			"max":[
				4.337603569030762,
				2.793825626373291,
				0.6906547546386719
			],
			"min":[
				-1.0666224956512451,
				-4.035289764404297,
				-4.441030025482178
			],
			"type":"VEC3"
		},
		{
			"bufferView":1,
			"componentType":5126,
			"count":163484,
			"type":"VEC3"
		},
		{
			"bufferView":2,
			"componentType":5126,
			"count":163484,
			"type":"VEC2"
		},
		{
			"bufferView":3,
			"componentType":5125,
			"count":980892,
			"type":"SCALAR"
		},
		{
			"bufferView":4,
			"componentType":5126,
			"count":1984,
			"max":[
				0.9999997019767761,
				1,
				0.9999993443489075
			],
			"min":[
				-0.9999990463256836,
				-1,
				-1
			],
			"type":"VEC3"
		},
		{
			"bufferView":5,
			"componentType":5126,
			"count":1984,
			"type":"VEC3"
		},
		{
			"bufferView":6,
			"componentType":5126,
			"count":1984,
			"type":"VEC2"
		},
		{
			"bufferView":7,
			"componentType":5123,
			"count":2880,
			"type":"SCALAR"
		},
		{
			"bufferView":8,
			"componentType":5126,
			"count":1984,
			"max":[
				0.9999997019767761,
				1,
				0.9999993443489075
			],
			"min":[
				-0.9999990463256836,
				-1,
				-1
			],
			"type":"VEC3"
		},
		{
			"bufferView":9,
			"componentType":5126,
			"count":1984,
			"type":"VEC3"
		},
		{
			"bufferView":10,
			"componentType":5126,
			"count":1984,
			"type":"VEC2"
		},
		{
			"bufferView":11,
			"componentType":5123,
			"count":2880,
			"type":"SCALAR"
		},
		{
			"bufferView":12,
			"componentType":5126,
			"count":1819,
			"max":[
				1.2420119047164917,
				4.532399654388428,
				1.2723628282546997
			],
			"min":[
				-1.3128604888916016,
				-1.419226884841919,
				-1.2564009428024292
			],
			"type":"VEC3"
		},
		{
			"bufferView":13,
			"componentType":5126,
			"count":1819,
			"type":"VEC3"
		},
		{
			"bufferView":14,
			"componentType":5126,
			"count":1819,
			"type":"VEC2"
		},
		{
			"bufferView":15,
			"componentType":5123,
			"count":10224,
			"type":"SCALAR"
		},
		{
			"bufferView":16,
			"componentType":5126,
			"count":1649,
			"max":[
				2.329760789871216,
				2.8064188957214355,
				-0.7346648573875427
			],
			"min":[
				-2.329657554626465,
				-2.3561222553253174,
				-5.540902137756348
			],
			"type":"VEC3"
		},
		{
			"bufferView":17,
			"componentType":5126,
			"count":1649,
			"type":"VEC3"
		},
		{
			"bufferView":18,
			"componentType":5126,
			"count":1649,
			"type":"VEC2"
		},
		{
			"bufferView":19,
			"componentType":5123,
			"count":9216,
			"type":"SCALAR"
		},
		{
			"bufferView":20,
			"componentType":5126,
			"count":882,
			"max":[
				4.03681755065918,
				1.384312391281128,
				5.908945083618164
			],
			"min":[
				-0.8395062685012817,
				-0.8395062685012817,
				-0.8395062685012817
			],
			"type":"VEC3"
		},
		{
			"bufferView":21,
			"componentType":5126,
			"count":882,
			"type":"VEC3"
		},
		{
			"bufferView":22,
			"componentType":5126,
			"count":882,
			"type":"VEC2"
		},
		{
			"bufferView":23,
			"componentType":5123,
			"count":4608,
			"type":"SCALAR"
		}
	],
	"bufferViews":[
		{
			"buffer":0,
			"byteLength":1961808,
			"byteOffset":0,
			"target":34962
		},
		{
			"buffer":0,
			"byteLength":1961808,
			"byteOffset":1961808,
			"target":34962
		},
		{
			"buffer":0,
			"byteLength":1307872,
			"byteOffset":3923616,
			"target":34962
		},
		{
			"buffer":0,
			"byteLength":3923568,
			"byteOffset":5231488,
			"target":34963
		},
		{
			"buffer":0,
			"byteLength":23808,
			"byteOffset":9155056,
			"target":34962
		},
		{
			"buffer":0,
			"byteLength":23808,
			"byteOffset":9178864,
			"target":34962
		},
		{
			"buffer":0,
			"byteLength":15872,
			"byteOffset":9202672,
			"target":34962
		},
		{
			"buffer":0,
			"byteLength":5760,
			"byteOffset":9218544,
			"target":34963
		},
		{
			"buffer":0,
			"byteLength":23808,
			"byteOffset":9224304,
			"target":34962
		},
		{
			"buffer":0,
			"byteLength":23808,
			"byteOffset":9248112,
			"target":34962
		},
		{
			"buffer":0,
			"byteLength":15872,
			"byteOffset":9271920,
			"target":34962
		},
		{
			"buffer":0,
			"byteLength":5760,
			"byteOffset":9287792,
			"target":34963
		},
		{
			"buffer":0,
			"byteLength":21828,
			"byteOffset":9293552,
			"target":34962
		},
		{
			"buffer":0,
			"byteLength":21828,
			"byteOffset":9315380,
			"target":34962
		},
		{
			"buffer":0,
			"byteLength":14552,
			"byteOffset":9337208,
			"target":34962
		},
		{
			"buffer":0,
			"byteLength":20448,
			"byteOffset":9351760,
			"target":34963
		},
		{
			"buffer":0,
			"byteLength":19788,
			"byteOffset":9372208,
			"target":34962
		},
		{
			"buffer":0,
			"byteLength":19788,
			"byteOffset":9391996,
			"target":34962
		},
		{
			"buffer":0,
			"byteLength":13192,
			"byteOffset":9411784,
			"target":34962
		},
		{
			"buffer":0,
			"byteLength":18432,
			"byteOffset":9424976,
			"target":34963
		},
		{
			"buffer":0,
			"byteLength":10584,
			"byteOffset":9443408,
			"target":34962
		},
		{
			"buffer":0,
			"byteLength":10584,
			"byteOffset":9453992,
			"target":34962
		},
		{
			"buffer":0,
			"byteLength":7056,
			"byteOffset":9464576,
			"target":34962
		},
		{
			"buffer":0,
			"byteLength":9216,
			"byteOffset":9471632,
			"target":34963
		}
	],
	"buffers":[
		{
			"byteLength":9480848,
			"uri":"chasehead.bin"
		}
	]
}
